# xmcd
#
# Track frame offsets:
#	150
#	15105
#	38570
#	54108
#	73593
#	93943
#	120778
#	138100
#	153855
#	168215
#
# Disc length: 2547 seconds
#
# Revision: 1980541942
# Processed by: cddbd v1.5.2PL0 Copyright (c) Steve Scherf et al.
# Submitted via: EZCDAudioConverter 8.0.2.1
#
DISCID=5d09f10a
DTITLE=Various Artist - Khiêu Vũ Tuyệt Vời
DYEAR=1990
DGENRE=Disco
TTITLE0=Lệ Hằng - Dấn bước thăng trầm
TTITLE1=Vũ Khanh - Gót hồng thôi hết phiêu du
TTITLE2=Như Mai - Người đến rồi đi
TTITLE3=Thanh Tuyền - Phiên khúc chiều mưa
TTITLE4=Tuấn Anh - Paris có gì lạ không em
TTITLE5=Elvis Phương - Căn gác lưu đầy
TTITLE6=Kiều Nga - Nhớ mình anh
TTITLE7=Nguyễn Tâm - Cali chiều thu
TTITLE8=Kiều Nga - Mặt trời đen
TTITLE9=Hằng Nga - Giòng sông quê nhà
EXTD=
EXTT0=
EXTT1=
EXTT2=
EXTT3=
EXTT4=
EXTT5=
EXTT6=
EXTT7=
EXTT8=
EXTT9=
PLAYORDER=
